<svg width="45" height="46" viewBox="0 0 45 46" fill="none" xmlns="http://www.w3.org/2000/svg">
<g clip-path="url(#clip0_7_823)">
<path d="M44.3847 9.77344H11.7347C11.644 9.77338 11.5543 9.79344 11.4722 9.83216C11.39 9.87088 11.3175 9.9273 11.2598 9.99738L9.88869 11.6624L8.5176 9.99738C8.45987 9.9273 8.38734 9.87088 8.30522 9.83216C8.2231 9.79344 8.13343 9.77338 8.04263 9.77344H0.615173C0.53435 9.77344 0.454319 9.78936 0.379652 9.8203C0.304986 9.85124 0.237147 9.89659 0.180013 9.95376C0.122878 10.0109 0.0775678 10.0788 0.04667 10.1535C0.0157723 10.2282 -0.000107119 10.3082 -6.09347e-05 10.389V34.6468C-6.09347e-05 34.81 0.0647582 34.9665 0.180137 35.0819C0.295516 35.1973 0.452003 35.2621 0.615173 35.2621H8.04053C8.13132 35.2621 8.22099 35.2421 8.30311 35.2033C8.38523 35.1646 8.45776 35.1082 8.51549 35.0381L9.88658 33.3731L11.2577 35.0381C11.3154 35.1082 11.3879 35.1646 11.47 35.2033C11.5522 35.2421 11.6418 35.2621 11.7326 35.2621H44.3847C44.4655 35.2621 44.5455 35.2462 44.6202 35.2153C44.6949 35.1844 44.7627 35.1391 44.8198 35.082C44.877 35.0248 44.9223 34.957 44.9532 34.8823C44.9841 34.8077 45 34.7276 44.9999 34.6468V10.389C45 10.3082 44.9842 10.2281 44.9533 10.1534C44.9224 10.0787 44.8771 10.0108 44.82 9.95366C44.7628 9.89648 44.695 9.85113 44.6203 9.82021C44.5456 9.78928 44.4655 9.77339 44.3847 9.77344ZM1.23041 11.0039H7.75013L9.41267 13.0212C9.47236 13.088 9.5455 13.1415 9.62729 13.1781C9.70907 13.2147 9.79767 13.2336 9.88728 13.2336C9.97689 13.2336 10.0655 13.2147 10.1473 13.1781C10.2291 13.1415 10.3022 13.088 10.3619 13.0212L12.0244 11.0039H43.7705V29.7714H1.23041V11.0039ZM43.7695 34.0312H12.0251L10.3626 32.014C10.3029 31.9471 10.2298 31.8937 10.148 31.8571C10.0662 31.8204 9.9776 31.8015 9.88799 31.8015C9.79838 31.8015 9.70978 31.8204 9.62799 31.8571C9.5462 31.8937 9.47307 31.9471 9.41338 32.014L7.75084 34.0312H1.23041V31.0018H43.7695V34.0312Z" fill="white"/>
<path d="M20.4609 12.5863H13.0612C12.9704 12.5862 12.8808 12.6063 12.7987 12.645C12.7167 12.6837 12.6442 12.7401 12.5866 12.8102L9.88763 16.0847L7.18869 12.8099C7.13105 12.7398 7.05859 12.6834 6.97652 12.6446C6.89446 12.6059 6.80482 12.5859 6.71408 12.5859H3.42767C3.34682 12.5859 3.26676 12.6019 3.19207 12.6328C3.11738 12.6638 3.04953 12.7092 2.99239 12.7664C2.93525 12.8236 2.88995 12.8915 2.85907 12.9662C2.82819 13.0409 2.81235 13.121 2.81244 13.2019V27.5745C2.81244 27.7376 2.87726 27.8941 2.99264 28.0095C3.10802 28.1249 3.2645 28.1897 3.42767 28.1897H20.4609C20.624 28.1897 20.7805 28.1249 20.8959 28.0095C21.0113 27.8941 21.0761 27.7376 21.0761 27.5745V13.2019C21.0762 13.1211 21.0603 13.041 21.0294 12.9663C20.9985 12.8916 20.9532 12.8238 20.896 12.7666C20.8389 12.7094 20.7711 12.6641 20.6964 12.6332C20.6217 12.6022 20.5417 12.5863 20.4609 12.5863ZM19.8456 26.9592H4.04291V13.8168H6.42369L9.41197 17.4438C9.47166 17.5107 9.54479 17.5641 9.62658 17.6008C9.70837 17.6374 9.79697 17.6563 9.88658 17.6563C9.97619 17.6563 10.0648 17.6374 10.1466 17.6008C10.2284 17.5641 10.3015 17.5107 10.3612 17.4438L13.3495 13.8168H19.8463L19.8456 26.9592Z" fill="white"/>
<path d="M40.8445 13.5192C40.3331 13.0091 39.6403 12.7227 38.918 12.7227C38.1957 12.7227 37.5028 13.0091 36.9914 13.5192L34.4348 16.0758L30.1131 15.0752C29.6045 14.9558 29.0739 14.9687 28.5717 15.1126C28.0695 15.2565 27.6125 15.5266 27.2443 15.8972L26.2832 16.8583C26.2123 16.9291 26.1597 17.0162 26.1301 17.1119C26.1006 17.2077 26.0948 17.3092 26.1134 17.4077C26.1321 17.5061 26.1744 17.5985 26.2369 17.6769C26.2994 17.7552 26.3801 17.8171 26.472 17.8571L30.774 19.7383L28.8513 21.6607L25.0896 22.0091C24.9469 22.0217 24.813 22.0839 24.7113 22.1849L22.848 24.0481C22.7722 24.1239 22.7175 24.2183 22.6894 24.3217C22.6612 24.4252 22.6606 24.5342 22.6876 24.638C22.7145 24.7417 22.7681 24.8367 22.8431 24.9133C22.9181 24.99 23.0117 25.0458 23.1149 25.0751L27.6778 26.3727C28.5059 26.608 29.3818 26.618 30.2151 26.4017C31.0484 26.1854 31.8088 25.7506 32.4179 25.1422L42.0071 15.553C42.0643 15.4959 42.1097 15.4281 42.1406 15.3535C42.1716 15.2789 42.1875 15.1989 42.1875 15.1181C42.1875 15.0373 42.1716 14.9573 42.1406 14.8827C42.1097 14.8081 42.0643 14.7403 42.0071 14.6832L40.8445 13.5192ZM31.5478 24.2714C31.0939 24.7251 30.5271 25.0495 29.9059 25.2108C29.2847 25.3722 28.6316 25.3648 28.0143 25.1893L24.4586 24.1786L25.4254 23.2118L29.1871 22.8634C29.3301 22.8503 29.4639 22.7875 29.5654 22.6858L32.2826 19.9686C32.3535 19.8978 32.406 19.8107 32.4356 19.715C32.4652 19.6193 32.4709 19.5178 32.4523 19.4193C32.4337 19.3208 32.3913 19.2284 32.3288 19.1501C32.2663 19.0717 32.1856 19.0099 32.0938 18.9698L27.791 17.0904L28.1145 16.7669C28.3355 16.5444 28.61 16.3823 28.9116 16.2961C29.2132 16.21 29.5318 16.2026 29.8371 16.2747L34.4883 17.3512C34.59 17.3745 34.696 17.3717 34.7963 17.343C34.8966 17.3143 34.988 17.2606 35.062 17.187L37.8598 14.3893C38.1403 14.1096 38.5203 13.9526 38.9164 13.9526C39.3125 13.9526 39.6925 14.1096 39.973 14.3893L40.7007 15.1174L31.5478 24.2714Z" fill="white"/>
<path d="M17.6484 24.1484H6.24017C6.077 24.1484 5.92052 24.2133 5.80514 24.3286C5.68976 24.444 5.62494 24.6005 5.62494 24.7637C5.62494 24.9268 5.68976 25.0833 5.80514 25.1987C5.92052 25.3141 6.077 25.3789 6.24017 25.3789H17.6484C17.8115 25.3789 17.968 25.3141 18.0834 25.1987C18.1988 25.0833 18.2636 24.9268 18.2636 24.7637C18.2636 24.6005 18.1988 24.444 18.0834 24.3286C17.968 24.2133 17.8115 24.1484 17.6484 24.1484Z" fill="white"/>
<path d="M17.6484 21.8945H6.24017C6.077 21.8945 5.92052 21.9593 5.80514 22.0747C5.68976 22.1901 5.62494 22.3466 5.62494 22.5098C5.62494 22.6729 5.68976 22.8294 5.80514 22.9448C5.92052 23.0602 6.077 23.125 6.24017 23.125H17.6484C17.8115 23.125 17.968 23.0602 18.0834 22.9448C18.1988 22.8294 18.2636 22.6729 18.2636 22.5098C18.2636 22.3466 18.1988 22.1901 18.0834 22.0747C17.968 21.9593 17.8115 21.8945 17.6484 21.8945Z" fill="white"/>
<path d="M17.6484 19.6406H6.24017C6.077 19.6406 5.92052 19.7054 5.80514 19.8208C5.68976 19.9362 5.62494 20.0927 5.62494 20.2559C5.62494 20.419 5.68976 20.5755 5.80514 20.6909C5.92052 20.8063 6.077 20.8711 6.24017 20.8711H17.6484C17.8115 20.8711 17.968 20.8063 18.0834 20.6909C18.1988 20.5755 18.2636 20.419 18.2636 20.2559C18.2636 20.0927 18.1988 19.9362 18.0834 19.8208C17.968 19.7054 17.8115 19.6406 17.6484 19.6406Z" fill="white"/>
<path d="M12.7332 18.0059C12.7332 18.0867 12.7491 18.1667 12.78 18.2414C12.8109 18.316 12.8562 18.3839 12.9133 18.441C12.9704 18.4981 13.0383 18.5435 13.113 18.5744C13.1876 18.6053 13.2676 18.6211 13.3484 18.6211H17.6484C17.8116 18.6211 17.9681 18.5563 18.0834 18.4409C18.1988 18.3255 18.2636 18.169 18.2636 18.0059C18.2636 17.8427 18.1988 17.6862 18.0834 17.5708C17.9681 17.4554 17.8116 17.3906 17.6484 17.3906H13.3484C13.2676 17.3906 13.1876 17.4065 13.113 17.4374C13.0383 17.4683 12.9704 17.5136 12.9133 17.5707C12.8562 17.6279 12.8109 17.6957 12.78 17.7704C12.7491 17.845 12.7332 17.9251 12.7332 18.0059Z" fill="white"/>
</g>
<defs>
<clipPath id="clip0_7_823">
<rect width="45" height="45" fill="white" transform="translate(-6.10352e-05 0.0195312)"/>
</clipPath>
</defs>
</svg>
