<svg width="53" height="50" viewBox="0 0 53 50" fill="none" xmlns="http://www.w3.org/2000/svg">
<g filter="url(#filter0_d_7_801)">
<path d="M10.6797 20.0586C10.6797 24.3125 14.125 27.8281 18.4492 27.8281C22.7383 27.8281 26.2187 24.3477 26.2187 20.0586C26.2187 15.8398 22.8086 12.2891 18.4492 12.2891C14.1953 12.2891 10.6797 15.7695 10.6797 20.0586ZM24.3555 22.8359H22.3867C22.5273 22.1328 22.6328 21.3945 22.6328 20.6562H24.9531C24.918 21.4297 24.707 22.168 24.3555 22.8359ZM11.9453 20.6562H14.2656C14.3008 21.3945 14.3711 22.0977 14.5117 22.8359H12.543C12.1914 22.168 12.0156 21.4297 11.9453 20.6562ZM15.4961 20.6562H17.8516V22.8359H15.7773C15.6016 22.1328 15.4961 21.3945 15.4961 20.6562ZM17.8516 24.0664V26.4219C17.2187 26.1055 16.5859 25.2617 16.1289 24.0664H17.8516ZM19.082 26.457V24.1016H20.8047C20.3125 25.2617 19.7148 26.1055 19.082 26.457ZM19.082 22.8359V20.6562H21.4375C21.4023 21.3945 21.2969 22.1328 21.1562 22.8359H19.082ZM24.9883 19.4609H22.668C22.6328 18.7227 22.5625 18.0195 22.4219 17.2812H24.3906C24.707 17.9492 24.918 18.6875 24.9883 19.4609ZM21.4375 19.4609H19.082V17.2812H21.1562C21.2969 17.9844 21.4023 18.7227 21.4375 19.4609ZM19.082 16.0508V13.6953C19.7148 14.0117 20.3477 14.8555 20.8047 16.0508H19.082ZM17.8516 13.6602V16.0156H16.1289C16.5859 14.8555 17.1836 14.0117 17.8516 13.6602ZM17.8516 17.2812V19.4609H15.4961C15.5312 18.7227 15.6367 17.9844 15.7773 17.2812H17.8516ZM14.2656 19.4609H11.9453C12.0156 18.7227 12.2266 17.9844 12.543 17.2812H14.5117C14.3711 17.9844 14.2656 18.7227 14.2656 19.4609ZM13.2812 24.0664H14.8281C15.0391 24.7344 15.3203 25.4023 15.707 26C14.7578 25.543 13.9492 24.9102 13.2812 24.0664ZM21.1914 26C21.5781 25.4023 21.8594 24.7695 22.0703 24.0664H23.6172C22.9844 24.9102 22.1406 25.543 21.1914 26ZM23.6172 16.0508H22.0703C21.8594 15.3828 21.5781 14.75 21.1914 14.1172C22.1406 14.5742 22.9844 15.207 23.6172 16.0508ZM15.707 14.1172C15.3203 14.7148 15.0391 15.3477 14.8281 16.0508H13.2812C13.9492 15.207 14.7578 14.5742 15.707 14.1172Z" fill="white"/>
<path d="M29.875 29.6211H7.05859C6.70703 29.6211 6.46094 29.9023 6.46094 30.2188V32.6094C6.46094 32.9609 6.74219 33.207 7.05859 33.207H29.875C30.2266 33.207 30.4727 32.9258 30.4727 32.6094V30.2188C30.4727 29.9023 30.1914 29.6211 29.875 29.6211ZM29.2422 32.0117H7.65625V30.8516H29.2422V32.0117Z" fill="white"/>
<path d="M25.0586 34.4023H11.875C11.5234 34.4023 11.2773 34.6836 11.2773 35V37.3906C11.2773 37.7422 11.5586 37.9883 11.875 37.9883H25.0586C25.4102 37.9883 25.6562 37.707 25.6562 37.3906V35C25.6562 34.6836 25.375 34.4023 25.0586 34.4023ZM24.4258 36.8281H12.4727V35.668H24.4258V36.8281Z" fill="white"/>
<path d="M34.4805 14.293L36.625 13.4492V14.5039L35.2891 16.1211C35.1836 16.2266 35.1484 16.3672 35.1484 16.5078V18.0195C35.1484 18.4766 35.6406 18.793 36.0625 18.5469L38.418 17.2461C39.3672 16.7187 39.9648 15.6992 39.9648 14.6094V6.875C39.9648 6.52344 39.6836 6.27734 39.3672 6.27734H38.418C37.4336 6.27734 36.5898 7.08594 36.5898 8.10547V10.0039L34.5859 11.2344C33.9883 11.5859 33.6367 12.2539 33.6367 12.957V13.7305C33.6367 14.1523 34.0937 14.4687 34.4805 14.293ZM35.2539 12.2891L37.5742 10.8477C37.75 10.7422 37.8555 10.5312 37.8555 10.3203V8.07031C37.8555 7.75391 38.1016 7.47266 38.4531 7.47266H38.7695V14.5742C38.7695 15.207 38.418 15.8047 37.8555 16.1211L36.4141 16.9297V16.6836L37.7148 15.1016C37.8203 14.9961 37.8555 14.8555 37.8555 14.7148V12.5352C37.8555 12.1133 37.4336 11.7969 37.0117 11.9727L34.9023 12.8164C34.9023 12.6055 35.043 12.3945 35.2539 12.2891Z" fill="white"/>
<path d="M48.7891 13.1689C35.3945 -0.225586 40.0351 4.41504 39.0156 3.39551C38.7695 3.14941 38.3828 3.14941 38.1367 3.39551L32.1602 9.40723C31.4219 8.35254 30.2266 7.75488 28.9609 7.75488H28.3984V3.85254C28.3984 3.46582 28.0469 3.18457 27.6602 3.25488L4.52734 7.75488C4.24609 7.8252 4.03516 8.07129 4.03516 8.35254V41.2236C4.03516 41.5752 4.31641 41.8213 4.63281 41.8213H32.2305C32.582 41.8213 32.8281 41.54 32.8281 41.2236V29.9736L48.7539 14.0479C49.0351 13.8018 49.0351 13.415 48.7891 13.1689ZM32.7227 10.5674L38.5937 4.69629L45.7656 11.8682C45.0977 12.5361 34.3047 23.3291 32.8633 24.7705V11.6572C32.8633 11.2705 32.8281 10.9189 32.7227 10.5674ZM27.168 4.59082V7.71973H11.0312L27.168 4.59082ZM5.26562 40.5908V8.9502H28.9609C30.4375 8.9502 31.6328 10.1455 31.6328 11.6221V40.5557H5.26562V40.5908ZM32.8633 28.2158V26.5283L46.6445 12.7471L47.4883 13.5908L32.8633 28.2158Z" fill="white"/>
</g>
<defs>
<filter id="filter0_d_7_801" x="0" y="0.0195312" width="53" height="53" filterUnits="userSpaceOnUse" color-interpolation-filters="sRGB">
<feFlood flood-opacity="0" result="BackgroundImageFix"/>
<feColorMatrix in="SourceAlpha" type="matrix" values="0 0 0 0 0 0 0 0 0 0 0 0 0 0 0 0 0 0 127 0" result="hardAlpha"/>
<feOffset dy="4"/>
<feGaussianBlur stdDeviation="2"/>
<feComposite in2="hardAlpha" operator="out"/>
<feColorMatrix type="matrix" values="0 0 0 0 0 0 0 0 0 0 0 0 0 0 0 0 0 0 0.25 0"/>
<feBlend mode="normal" in2="BackgroundImageFix" result="effect1_dropShadow_7_801"/>
<feBlend mode="normal" in="SourceGraphic" in2="effect1_dropShadow_7_801" result="shape"/>
</filter>
</defs>
</svg>
