<svg width="45" height="45" viewBox="0 0 45 45" fill="none" xmlns="http://www.w3.org/2000/svg">
<path d="M37.1602 8.96484C38.8477 8.96484 40.2539 7.59375 40.2539 5.87109C40.2539 4.14844 38.8477 2.8125 37.1602 2.8125C35.4727 2.8125 34.0664 4.18359 34.0664 5.90625C34.0664 7.59375 35.4375 8.96484 37.1602 8.96484ZM37.1602 4.04297C38.1797 4.04297 39.0234 4.88672 39.0234 5.90625C39.0234 6.92578 38.1797 7.76953 37.1602 7.76953C36.1406 7.76953 35.2969 6.92578 35.2969 5.90625C35.2969 4.88672 36.1055 4.04297 37.1602 4.04297Z" fill="white"/>
<path d="M40.8516 16.1016C40.2891 14.9063 39.6211 13.7461 38.8477 12.6914C40.5352 11.5664 43.0313 9.35156 43.0313 5.90625C43.0313 2.63672 40.3945 0.0351562 37.1602 0.0351562C33.9258 0.0351562 31.2539 2.63672 31.2539 5.90625V6.29297C30.7969 6.08203 30.3399 5.87109 29.8828 5.66016C16.6641 0.351562 2.03907 9.94922 1.96876 24.5391C1.9336 35.7891 11.0039 44.9297 22.2539 44.9648C33.5039 45 42.6445 35.9297 42.6797 24.6797C42.6797 24.6094 42.6797 24.5742 42.6797 24.5039C42.6797 21.6211 42.0469 18.7383 40.8516 16.1016ZM37.1602 1.23047C39.7266 1.23047 41.8008 3.30469 41.8359 5.90625C41.8359 9.59766 38.1797 11.7773 37.1602 12.2695C36.1758 11.7422 32.4844 9.59766 32.4844 5.90625C32.4844 3.30469 34.5586 1.23047 37.1602 1.23047ZM36.8789 13.5352C37.0547 13.6055 37.2305 13.6055 37.3711 13.5352C37.4063 13.5352 37.5469 13.4648 37.7578 13.3242C38.3203 14.0977 38.8125 14.9063 39.2695 15.75H35.6133L33.1524 13.2891C33.0117 13.1484 32.8008 13.0781 32.5899 13.1133L25.3477 14.7305C25.0664 14.8008 24.8555 15.0469 24.8555 15.3281V16.8047C24.8555 17.1211 25.0664 17.3672 25.3828 17.4023L30.375 18.1758L31.6055 20.5664C31.6758 20.707 31.8164 20.8477 31.9922 20.8828L35.1563 21.7617V23.5547L33.2578 25.5234C33.1524 25.6289 33.082 25.8047 33.082 25.9453V28.9336L29.6016 35.0156H27.668V33.082C27.668 32.9063 27.5977 32.7305 27.457 32.625L24.7852 30.1992V27.3867C24.7852 27.1406 24.6094 26.8945 24.3984 26.8242L18.9141 24.8203V20.25L22.5 16.3828C22.7461 16.1367 22.7109 15.75 22.4649 15.5039L22.4297 15.4688L19.1602 12.9375L21.832 9.14063H27.3164C27.4922 9.14063 27.6328 9.07031 27.7383 8.96484L29.7774 6.92578C30.3399 7.17188 30.9375 7.45313 31.5 7.76953C32.625 11.5664 36.7031 13.4297 36.8789 13.5352ZM9.98439 9.94922L11.5313 13.1484L10.3008 13.7813C10.2305 13.8164 10.1953 13.8516 10.125 13.8867L7.20704 16.875C7.03126 17.0508 6.9961 17.2969 7.06642 17.5078L7.48829 18.7031C7.03126 18.9844 6.57423 19.3711 6.22267 19.7578L3.72657 20.1797C4.64064 16.1719 6.85548 12.5859 9.98439 9.94922ZM10.582 30.0234C9.59767 29.4961 5.90626 27.3516 5.90626 23.6602C5.94142 21.0938 8.05079 19.0195 10.6172 19.0547C13.1484 19.0898 15.2227 21.1289 15.2227 23.6602C15.2227 27.3516 11.5664 29.5313 10.582 30.0234ZM3.23439 23.5195C3.26954 22.8164 3.33985 22.1484 3.44532 21.4453L5.23829 21.1289C4.88673 21.8672 4.67579 22.6758 4.67579 23.4844H3.23439V23.5195ZM10.3008 36.5625V39.4453C5.8711 35.8594 3.26954 30.4805 3.19923 24.75H4.78126C5.44923 29.0742 10.125 31.1836 10.3359 31.2891C10.5117 31.3594 10.6875 31.3594 10.8281 31.2891C11.3203 31.043 11.7774 30.7969 12.2344 30.4805L12.8672 31.1133V32.8008L12.0938 33.9609C11.918 34.207 11.9883 34.5586 12.1992 34.7695L12.375 34.9453L10.5469 36.0352C10.4063 36.1406 10.3008 36.3164 10.3008 36.5625ZM22.3242 43.6992C18.457 43.6992 14.6953 42.5391 11.5313 40.3594V36.9141L13.8164 35.543C14.0977 35.3672 14.2031 34.9805 14.0274 34.6992C13.9922 34.6289 13.957 34.5938 13.8867 34.5586L13.4649 34.207L14.0274 33.3633C14.0977 33.2578 14.1328 33.1523 14.1328 33.0117V30.9023C14.1328 30.7266 14.0625 30.5859 13.957 30.4805L13.2891 29.8125C14.8359 28.582 16.5234 26.543 16.5234 23.7305C16.5234 20.4961 13.9219 17.8594 10.6524 17.8594C9.94923 17.8594 9.28126 17.9648 8.61329 18.2109L8.3672 17.5078L10.9336 14.8711L12.6211 14.0273C12.9375 13.8867 13.043 13.5 12.9024 13.2188L10.9688 9.24609C16.0313 5.51953 22.6055 4.5 28.5469 6.53906L27.0703 7.94531H21.5156C21.3047 7.94531 21.1289 8.05078 21.0234 8.19141L17.8242 12.7266C17.6484 13.0078 17.6836 13.3594 17.9649 13.5703L21.1641 16.0313L17.8594 19.582C17.7539 19.6875 17.6836 19.8281 17.6836 20.0039V25.2422C17.6836 25.4883 17.8594 25.7344 18.0703 25.8047L23.5547 27.8086V30.4805C23.5547 30.6563 23.625 30.832 23.7656 30.9375L26.4375 33.3633V35.6484C26.4375 36 26.7188 36.2461 27.0352 36.2461H29.9531C30.1641 36.2461 30.375 36.1406 30.4805 35.9297L34.2422 29.3906C34.3125 29.2852 34.3125 29.1797 34.3125 29.0742V26.1563L36.2109 24.2578C36.3164 24.1523 36.3867 23.9766 36.3867 23.8359V21.3398C36.3867 21.0586 36.2109 20.8125 35.9297 20.7422L32.5547 19.793L31.3242 17.3672C31.2188 17.1914 31.0781 17.0859 30.8672 17.0508L26.0859 16.3125V15.8203L32.5195 14.3789L34.9453 16.8047C35.0508 16.9102 35.2266 16.9805 35.3672 16.9805H39.8672C40.9219 19.3711 41.4492 21.9375 41.4492 24.5742C41.4492 35.1211 32.8711 43.6641 22.3242 43.6992Z" fill="white"/>
<path d="M10.582 20.5664C8.89453 20.5664 7.48828 21.9375 7.48828 23.6602C7.48828 25.3477 8.85938 26.7539 10.582 26.7539C12.3047 26.7539 13.6758 25.3828 13.6758 23.6602C13.6406 21.9727 12.2695 20.5664 10.582 20.5664ZM10.582 25.5234C9.5625 25.5234 8.71875 24.6797 8.71875 23.6602C8.71875 22.6406 9.5625 21.7969 10.582 21.7969C11.6016 21.7969 12.4453 22.6406 12.4453 23.6602C12.4453 24.6797 11.6016 25.5234 10.582 25.5234Z" fill="white"/>
</svg>
