<svg width="60" height="61" viewBox="0 0 60 61" fill="none" xmlns="http://www.w3.org/2000/svg">
<path d="M59.5 30.0195C59.5 46.3119 46.2924 59.5195 30 59.5195C13.7076 59.5195 0.5 46.3119 0.5 30.0195C0.5 13.7271 13.7076 0.519531 30 0.519531C46.2924 0.519531 59.5 13.7271 59.5 30.0195Z" stroke="#2437AC"/>
<path d="M36.6879 30.7383L31.6879 35.7383C31.5004 35.9258 31.2504 36.0195 31.0004 36.0195C30.7191 36.0195 30.4691 35.9258 30.2816 35.7383C29.8754 35.3633 29.8754 34.707 30.2816 34.332L33.5629 31.0195H24.0004C23.4379 31.0195 23.0004 30.582 23.0004 30.0195C23.0004 29.4883 23.4379 29.0195 24.0004 29.0195H33.5629L30.2816 25.7383C29.8754 25.3633 29.8754 24.707 30.2816 24.332C30.6566 23.9258 31.3129 23.9258 31.6879 24.332L36.6879 29.332C37.0941 29.707 37.0941 30.3633 36.6879 30.7383Z" fill="#2437AC"/>
</svg>
