<svg width="41" height="34" viewBox="0 0 41 34" fill="none" xmlns="http://www.w3.org/2000/svg">
<g clip-path="url(#clip0_7_4126)">
<path d="M18.5942 33.3325C15.3633 33.3325 12.2049 32.3744 9.51855 30.5794C6.83216 28.7844 4.73838 26.2331 3.50197 23.2482C2.26556 20.2632 1.94206 16.9787 2.57238 13.8099C3.20269 10.6411 4.75851 7.73033 7.0431 5.44575C9.32768 3.16116 12.2384 1.60534 15.4072 0.975025C18.576 0.34471 21.8606 0.66821 24.8455 1.90462C27.8305 3.14103 30.3818 5.23481 32.1768 7.9212C33.9717 10.6076 34.9298 13.7659 34.9298 16.9968C34.925 21.3278 33.2024 25.4801 30.1399 28.5426C27.0774 31.6051 22.9252 33.3277 18.5942 33.3325Z" fill="#00B8FF"/>
<path d="M18.5941 32.3373C21.6281 32.3373 24.594 31.4377 27.1166 29.7521C29.6393 28.0665 31.6055 25.6707 32.7665 22.8677C33.9276 20.0646 34.2313 16.9803 33.6395 14.0046C33.0476 11.0289 31.5865 8.29558 29.4412 6.15023C27.2959 4.00489 24.5625 2.54389 21.5868 1.95199C18.6112 1.36009 15.5268 1.66387 12.7238 2.82493C9.92074 3.98598 7.52494 5.95215 5.83936 8.47481C4.15377 10.9975 3.25409 13.9633 3.25409 16.9973C3.25888 21.0643 4.8766 24.9633 7.75238 27.8391C10.6282 30.7148 14.5272 32.3326 18.5941 32.3373Z" fill="white"/>
<path d="M38.7725 11.2023C38.5139 11.1066 37.8261 10.2946 34.7358 10.5532C33.7014 10.6412 30.7043 11.5876 26.9158 12.7694L18.0459 9.19043L15.372 9.47489L22.5015 14.1478C20.0319 14.908 17.433 15.6812 14.9272 16.3536L9.71125 12.7332L8.26569 13.1263L12.6825 18.7689L11.4077 21.4118L13.2566 21.192L14.4824 19.4206C17.9593 19.3096 21.4201 18.8987 24.8263 18.1922L23.0937 25.1744L25.284 24.2331L28.6769 17.357C39.3647 14.802 40.2853 12.847 40.487 12.3014C40.7043 11.6807 39.0337 11.3006 38.7725 11.2023Z" fill="#00B8FF"/>
<path d="M4.75134 27.9903L22.5067 24.7578L22.8429 22.8105L4.75134 27.9903Z" fill="#00B8FF"/>
<path d="M2.72656 25.2595L23.192 21.1814L23.6058 19.1074L2.72656 25.2595Z" fill="#00B8FF"/>
<path d="M11.0482 20.5893L1.52661 22.5495L11.6456 19.4023L11.0482 20.5893Z" fill="#00B8FF"/>
<path d="M11.1077 17.7755L0.937012 20.0589L10.3836 16.9531L11.1077 17.7755Z" fill="#00B8FF"/>
</g>
<defs>
<clipPath id="clip0_7_4126">
<rect width="40" height="32.6713" fill="white" transform="translate(0.5 0.664062)"/>
</clipPath>
</defs>
</svg>
